<?xml version="1.0" encoding="utf-8"?>
<!-- Generator: Adobe Illustrator 22.1.0, SVG Export Plug-In . SVG Version: 6.00 Build 0)  -->
<svg version="1.1" xmlns="http://www.w3.org/2000/svg" xmlns:xlink="http://www.w3.org/1999/xlink" x="0px" y="0px"
	 viewBox="0 0 161 104.8" style="enable-background:new 0 0 161 104.8;" xml:space="preserve">
<style type="text/css">
	.st0{fill:#FFFFFF;}
</style>
<g id="Layer_2">
</g>
<g id="Layer_1">
	<path class="st0" d="M0.1,69C0,69.4,0,69.8,0,70.2c0,0.1,0,0.3,0,0.4c0,0.3,0,0.5,0,0.8l0.1,0c0.6,18.5,15.8,33.3,34.4,33.3
		c19.1,0,34.5-15.4,34.5-34.5c0-17.4-12.9-31.7-29.6-34.1c4.2-13.8,16.9-23.8,32.1-23.8V0C32.8,0,1.4,30.7,0.1,69z"/>
	<path class="st0" d="M89.6,69c0,0.4-0.1,0.8-0.1,1.2c0,0.1,0,0.3,0,0.4c0,0.3,0,0.5,0,0.8l0.1,0c0.6,18.5,15.8,33.3,34.4,33.3
		c19.1,0,34.5-15.4,34.5-34.5c0-17.4-12.9-31.7-29.6-34.1c4.2-13.8,16.9-23.8,32.1-23.8V0C122.3,0,90.9,30.7,89.6,69z"/>
</g>
</svg>
