<?xml version="1.0" encoding="utf-8"?>
<!-- Generator: Adobe Illustrator 22.1.0, SVG Export Plug-In . SVG Version: 6.00 Build 0)  -->
<svg version="1.1" id="" xmlns="http://www.w3.org/2000/svg" xmlns:xlink="http://www.w3.org/1999/xlink" x="0px" y="0px"
	 viewBox="0 0 496.4 548.9" style="enable-background:new 0 0 496.4 548.9;" xml:space="preserve">
<style type="text/css">
	.st0{fill:#3499FF;}
	.st1{fill:none;stroke:#0065FF;stroke-width:18.89;stroke-miterlimit:10;}
	.st2{fill:none;stroke:#E36D0E;stroke-width:18.89;stroke-miterlimit:10;}
	.st3{fill:#FFFFFF;stroke:#FF6600;stroke-width:18.89;stroke-miterlimit:10;}
	.st4{fill:none;stroke:#0033D8;stroke-width:18.89;stroke-miterlimit:10;}
	.st5{fill:none;stroke:#3A97F6;stroke-width:18.89;stroke-miterlimit:10;}
	.st6{fill:none;stroke:#F69746;stroke-width:18.89;stroke-miterlimit:10;}
	.st7{fill:none;}
	.st8{fill:#FFFFFF;}
	.st9{fill:#E56C0B;stroke:#FFFFFF;stroke-width:3;stroke-miterlimit:10;}
	.st10{fill:#3499FF;stroke:#FFFFFF;stroke-width:3;stroke-miterlimit:10;}
	.st11{fill:#0065FF;stroke:#FFFFFF;stroke-width:3;stroke-miterlimit:10;}
	.st12{fill:#0032CB;stroke:#FFFFFF;stroke-width:3;stroke-miterlimit:10;}
	.st13{fill:#F79647;stroke:#FFFFFF;stroke-width:3;stroke-miterlimit:10;}
	.st14{fill:#FF6600;stroke:#FFFFFF;stroke-width:3;stroke-miterlimit:10;}
</style>
<circle class="st0" cx="248.2" cy="274.4" r="151.3"/>
<path class="st1" d="M418.9,373.4c-34.2,58.8-97.8,98.4-170.8,98.4"/>
<path class="st2" d="M77.4,175.6c34.1-58.9,97.9-98.5,170.8-98.5"/>
<path class="st3" d="M244.9,77.1c68-1.1,134.7,33.1,172.3,95.6"/>
<path class="st4" d="M251.5,471.7c-68.1,1.1-134.9-33.1-172.5-95.6"/>
<path class="st5" d="M419.3,176.1c33.8,59,36.2,133.9-0.3,197.1"/>
<path class="st6" d="M77.1,372.9c-33.9-59-36.3-134,0.2-197.2"/>
<g>
	<a xlink:href="" xlink:title="#">
	<rect x="116.9" y="213.4" class="st7" width="274" height="166.4"/>
	<path class="st8" d="M221.5,245.3v-12.9l-9.6-17.5h4.5l4.3,8.4c1.2,2.3,2.1,4.1,3,6.3h0.1c0.9-2,1.9-4,3.1-6.3l4.4-8.4h4.5
		l-10.2,17.4v12.9H221.5z"/>
	<path class="st8" d="M255.3,234.3c0,8.1-5.6,11.6-10.8,11.6c-5.9,0-10.4-4.3-10.4-11.2c0-7.3,4.8-11.6,10.8-11.6
		C251.1,223.1,255.3,227.6,255.3,234.3z M238,234.5c0,4.8,2.7,8.4,6.6,8.4c3.8,0,6.6-3.6,6.6-8.5c0-3.7-1.8-8.4-6.5-8.4
		S238,230.3,238,234.5z"/>
	<path class="st8" d="M278.5,239.4c0,2.3,0,4.2,0.2,5.9h-3.5l-0.2-3.6h-0.1c-1,1.8-3.3,4-7.2,4c-3.4,0-7.5-1.9-7.5-9.5v-12.7h4v12.1
		c0,4.1,1.3,6.9,4.9,6.9c2.7,0,4.5-1.8,5.2-3.6c0.2-0.6,0.4-1.3,0.4-2v-13.4h4V239.4z"/>
	<path class="st8" d="M285.1,230.3c0-2.6,0-4.8-0.2-6.8h3.5l0.1,4.3h0.2c1-2.9,3.4-4.8,6-4.8c0.5,0,0.8,0,1.1,0.1v3.7
		c-0.4-0.1-0.8-0.1-1.3-0.1c-2.8,0-4.8,2.1-5.3,5.1c-0.1,0.5-0.2,1.2-0.2,1.8v11.6h-3.9V230.3z"/>
	<path class="st8" d="M154,289.8l-3.1,9.5h-4l10.3-30.3h4.7l10.3,30.3H168l-3.2-9.5H154z M163.9,286.7l-3-8.7
		c-0.7-2-1.1-3.8-1.6-5.5h-0.1c-0.4,1.8-0.9,3.6-1.5,5.5l-3,8.8H163.9z"/>
	<path class="st8" d="M176.4,284.7c0-2.8-0.1-5-0.2-7.1h3.6l0.2,3.7h0.1c1.6-2.7,4.2-4.2,7.7-4.2c5.3,0,9.2,4.5,9.2,11.1
		c0,7.8-4.8,11.7-9.9,11.7c-2.9,0-5.4-1.3-6.7-3.4h-0.1v11.8h-3.9V284.7z M180.3,290.5c0,0.6,0.1,1.1,0.2,1.6
		c0.7,2.7,3.1,4.6,5.9,4.6c4.2,0,6.6-3.4,6.6-8.4c0-4.4-2.3-8.1-6.5-8.1c-2.7,0-5.2,1.9-6,4.9c-0.1,0.5-0.3,1.1-0.3,1.6V290.5z"/>
	<path class="st8" d="M202,284.7c0-2.8-0.1-5-0.2-7.1h3.6l0.2,3.7h0.1c1.6-2.7,4.2-4.2,7.7-4.2c5.3,0,9.2,4.5,9.2,11.1
		c0,7.8-4.8,11.7-9.9,11.7c-2.9,0-5.4-1.3-6.7-3.4h-0.1v11.8H202V284.7z M205.9,290.5c0,0.6,0.1,1.1,0.2,1.6
		c0.7,2.7,3.1,4.6,5.9,4.6c4.2,0,6.6-3.4,6.6-8.4c0-4.4-2.3-8.1-6.5-8.1c-2.7,0-5.2,1.9-6,4.9c-0.1,0.5-0.3,1.1-0.3,1.6V290.5z"/>
	<path class="st8" d="M227.6,267.4h4v31.9h-4V267.4z"/>
	<path class="st8" d="M242.6,271.4c0,1.4-0.9,2.4-2.5,2.4c-1.4,0-2.4-1.1-2.4-2.4c0-1.4,1-2.5,2.5-2.5
		C241.6,269,242.6,270,242.6,271.4z M238.2,299.3v-21.8h4v21.8H238.2z"/>
	<path class="st8" d="M264.2,298.5c-1,0.5-3.3,1.3-6.3,1.3c-6.6,0-10.8-4.5-10.8-11.1c0-6.7,4.6-11.6,11.7-11.6
		c2.3,0,4.4,0.6,5.5,1.1l-0.9,3.1c-0.9-0.5-2.4-1-4.6-1c-5,0-7.7,3.7-7.7,8.2c0,5,3.2,8.1,7.6,8.1c2.3,0,3.7-0.6,4.9-1.1
		L264.2,298.5z"/>
	<path class="st8" d="M280.9,299.3l-0.3-2.7h-0.1c-1.2,1.7-3.6,3.2-6.7,3.2c-4.4,0-6.7-3.1-6.7-6.3c0-5.3,4.7-8.1,13.1-8.1V285
		c0-1.8-0.5-5-4.9-5c-2,0-4.1,0.6-5.7,1.6l-0.9-2.6c1.8-1.2,4.4-1.9,7.2-1.9c6.7,0,8.3,4.5,8.3,8.9v8.1c0,1.9,0.1,3.7,0.4,5.2H280.9
		z M280.3,288.2c-4.3-0.1-9.2,0.7-9.2,4.9c0,2.6,1.7,3.8,3.7,3.8c2.8,0,4.6-1.8,5.3-3.6c0.1-0.4,0.2-0.9,0.2-1.3V288.2z"/>
	<path class="st8" d="M295.2,271.3v6.3h5.7v3h-5.7v11.7c0,2.7,0.8,4.2,3,4.2c1,0,1.8-0.1,2.3-0.3l0.2,3c-0.8,0.3-2,0.5-3.5,0.5
		c-1.8,0-3.3-0.6-4.3-1.7c-1.1-1.2-1.5-3.1-1.5-5.7v-11.9h-3.4v-3h3.4v-5.2L295.2,271.3z"/>
	<path class="st8" d="M309.7,271.4c0,1.4-0.9,2.4-2.5,2.4c-1.4,0-2.4-1.1-2.4-2.4c0-1.4,1-2.5,2.5-2.5
		C308.7,269,309.7,270,309.7,271.4z M305.3,299.3v-21.8h4v21.8H305.3z"/>
	<path class="st8" d="M335.5,288.3c0,8.1-5.6,11.6-10.8,11.6c-5.9,0-10.4-4.3-10.4-11.2c0-7.3,4.8-11.6,10.8-11.6
		C331.3,277.1,335.5,281.6,335.5,288.3z M318.2,288.5c0,4.8,2.7,8.4,6.6,8.4c3.8,0,6.6-3.6,6.6-8.5c0-3.7-1.8-8.4-6.5-8.4
		S318.2,284.3,318.2,288.5z"/>
	<path class="st8" d="M340.5,283.4c0-2.3,0-4.1-0.2-5.9h3.5l0.2,3.6h0.1c1.1-2.1,3.6-4.1,7.2-4.1c3,0,7.7,1.8,7.7,9.3v13h-4v-12.6
		c0-3.5-1.3-6.4-5-6.4c-2.6,0-4.6,1.8-5.3,4c-0.2,0.5-0.3,1.2-0.3,1.8v13.1h-4V283.4z"/>
	</a>
</g>
<g id="bubbleCompetencies">
	<a xlink:href="https://www.advising.ufl.edu/docs/AAMCCoreCompetencies.pdf" target="_blank" xlink:alt="Core Set of Entry-Level Competencies" xlink:title="Core Set of Entry-Level Competencies">
	<circle id="link_x5F_professionalCompetencies" class="st9" cx="77.1" cy="176.1" r="75.6"/>
	<g>
		<rect x="2.3" y="149" class="st7" width="150.4" height="80.4"/>
		<path class="st8" d="M26.5,149.9c0.9-0.1,2-0.3,3.5-0.3c1.8,0,3.1,0.4,4,1.2c0.8,0.7,1.2,1.7,1.2,3c0,1.3-0.4,2.3-1.1,3
			c-1,1-2.5,1.6-4.3,1.6c-0.5,0-1,0-1.5-0.1v5.7h-1.8V149.9z M28.4,156.7c0.4,0.1,0.9,0.1,1.5,0.1c2.2,0,3.5-1.1,3.5-3
			c0-1.9-1.3-2.8-3.3-2.8c-0.8,0-1.4,0.1-1.7,0.1V156.7z"/>
		<path class="st8" d="M37.3,156.9c0-1.2,0-2.2-0.1-3.2h1.6l0.1,2H39c0.5-1.4,1.6-2.2,2.8-2.2c0.2,0,0.4,0,0.5,0.1v1.7
			c-0.2,0-0.4-0.1-0.6-0.1c-1.3,0-2.2,1-2.5,2.4c0,0.3-0.1,0.5-0.1,0.9v5.4h-1.8V156.9z"/>
		<path class="st8" d="M53.2,158.7c0,3.8-2.6,5.4-5.1,5.4c-2.8,0-4.9-2-4.9-5.2c0-3.4,2.2-5.4,5-5.4
			C51.2,153.5,53.2,155.6,53.2,158.7z M45.1,158.8c0,2.2,1.3,3.9,3.1,3.9c1.8,0,3.1-1.7,3.1-3.9c0-1.7-0.9-3.9-3-3.9
			S45.1,156.9,45.1,158.8z"/>
		<path class="st8" d="M55.7,163.9v-8.8h-1.4v-1.4h1.4v-0.5c0-1.4,0.3-2.7,1.2-3.5c0.7-0.7,1.6-0.9,2.5-0.9c0.7,0,1.2,0.1,1.6,0.3
			l-0.3,1.4c-0.3-0.1-0.7-0.2-1.2-0.2c-1.6,0-2,1.4-2,2.9v0.5H60v1.4h-2.5v8.8H55.7z"/>
		<path class="st8" d="M62.4,159.1c0,2.5,1.6,3.5,3.5,3.5c1.3,0,2.1-0.2,2.8-0.5l0.3,1.3c-0.7,0.3-1.8,0.6-3.4,0.6
			c-3.1,0-5-2.1-5-5.1s1.8-5.5,4.8-5.5c3.3,0,4.2,2.9,4.2,4.8c0,0.4,0,0.7-0.1,0.9H62.4z M67.8,157.8c0-1.2-0.5-3-2.6-3
			c-1.9,0-2.7,1.7-2.8,3H67.8z"/>
		<path class="st8" d="M71.6,162c0.5,0.4,1.5,0.7,2.4,0.7c1.3,0,2-0.7,2-1.5c0-0.9-0.5-1.4-1.9-1.9c-1.8-0.7-2.7-1.7-2.7-2.9
			c0-1.6,1.3-3,3.5-3c1,0,1.9,0.3,2.5,0.6l-0.5,1.3c-0.4-0.3-1.1-0.6-2.1-0.6c-1.1,0-1.7,0.6-1.7,1.4c0,0.8,0.6,1.2,1.9,1.7
			c1.8,0.7,2.7,1.6,2.7,3.1c0,1.8-1.4,3-3.8,3c-1.1,0-2.1-0.3-2.9-0.7L71.6,162z"/>
		<path class="st8" d="M80,162c0.5,0.4,1.5,0.7,2.4,0.7c1.3,0,2-0.7,2-1.5c0-0.9-0.5-1.4-1.9-1.9c-1.8-0.7-2.7-1.7-2.7-2.9
			c0-1.6,1.3-3,3.5-3c1,0,1.9,0.3,2.5,0.6l-0.5,1.3c-0.4-0.3-1.1-0.6-2.1-0.6c-1.1,0-1.7,0.6-1.7,1.4c0,0.8,0.6,1.2,1.9,1.7
			c1.8,0.7,2.7,1.6,2.7,3.1c0,1.8-1.4,3-3.8,3c-1.1,0-2.1-0.3-2.9-0.7L80,162z"/>
		<path class="st8" d="M90.6,150.9c0,0.6-0.4,1.1-1.2,1.1c-0.7,0-1.1-0.5-1.1-1.1c0-0.7,0.5-1.2,1.2-1.2
			C90.1,149.7,90.6,150.2,90.6,150.9z M88.5,163.9v-10.2h1.8v10.2H88.5z"/>
		<path class="st8" d="M102.6,158.7c0,3.8-2.6,5.4-5.1,5.4c-2.8,0-4.9-2-4.9-5.2c0-3.4,2.2-5.4,5-5.4
			C100.7,153.5,102.6,155.6,102.6,158.7z M94.6,158.8c0,2.2,1.3,3.9,3.1,3.9c1.8,0,3.1-1.7,3.1-3.9c0-1.7-0.9-3.9-3-3.9
			S94.6,156.9,94.6,158.8z"/>
		<path class="st8" d="M105,156.5c0-1,0-1.9-0.1-2.8h1.6l0.1,1.7h0c0.5-1,1.7-1.9,3.4-1.9c1.4,0,3.6,0.8,3.6,4.3v6.1h-1.8V158
			c0-1.6-0.6-3-2.4-3c-1.2,0-2.2,0.9-2.5,1.9c-0.1,0.2-0.1,0.5-0.1,0.9v6.1H105V156.5z"/>
		<path class="st8" d="M122.2,163.9l-0.1-1.3H122c-0.6,0.8-1.7,1.5-3.1,1.5c-2.1,0-3.1-1.4-3.1-2.9c0-2.5,2.2-3.8,6.1-3.8v-0.2
			c0-0.8-0.2-2.4-2.3-2.4c-0.9,0-1.9,0.3-2.6,0.8l-0.4-1.2c0.8-0.5,2.1-0.9,3.3-0.9c3.1,0,3.9,2.1,3.9,4.2v3.8c0,0.9,0,1.7,0.2,2.4
			H122.2z M122,158.7c-2,0-4.3,0.3-4.3,2.3c0,1.2,0.8,1.8,1.7,1.8c1.3,0,2.2-0.8,2.5-1.7c0.1-0.2,0.1-0.4,0.1-0.6V158.7z"/>
		<path class="st8" d="M126.7,149h1.8v14.9h-1.8V149z"/>
		<path class="st8" d="M26.2,188.6c-0.7,0.3-2,0.7-3.7,0.7c-4,0-7-2.5-7-7.2c0-4.4,3-7.4,7.4-7.4c1.8,0,2.9,0.4,3.4,0.6l-0.4,1.5
			c-0.7-0.3-1.7-0.6-2.9-0.6c-3.3,0-5.5,2.1-5.5,5.8c0,3.5,2,5.7,5.4,5.7c1.1,0,2.2-0.2,3-0.6L26.2,188.6z"/>
		<path class="st8" d="M37.4,183.9c0,3.8-2.6,5.4-5.1,5.4c-2.8,0-4.9-2-4.9-5.2c0-3.4,2.2-5.4,5-5.4
			C35.5,178.7,37.4,180.8,37.4,183.9z M29.4,184c0,2.2,1.3,3.9,3.1,3.9c1.8,0,3.1-1.7,3.1-3.9c0-1.7-0.9-3.9-3-3.9
			S29.4,182.1,29.4,184z"/>
		<path class="st8" d="M39.8,181.7c0-1,0-1.9-0.1-2.8h1.6l0.1,1.6h0.1c0.6-1,1.5-1.9,3.2-1.9c1.4,0,2.4,0.8,2.9,2h0
			c0.3-0.6,0.7-1,1.1-1.3c0.6-0.5,1.3-0.7,2.2-0.7c1.3,0,3.3,0.9,3.3,4.4v6h-1.8v-5.8c0-2-0.7-3.1-2.2-3.1c-1,0-1.9,0.8-2.2,1.7
			c-0.1,0.3-0.1,0.6-0.1,0.9v6.3h-1.8V183c0-1.6-0.7-2.8-2.1-2.8c-1.2,0-2,0.9-2.3,1.8c-0.1,0.3-0.1,0.6-0.1,0.9v6.1h-1.8V181.7z"/>
		<path class="st8" d="M57.3,182.2c0-1.3,0-2.4-0.1-3.3h1.7l0.1,1.7h0c0.8-1.2,2-2,3.6-2c2.5,0,4.3,2.1,4.3,5.2
			c0,3.7-2.2,5.5-4.6,5.5c-1.3,0-2.5-0.6-3.1-1.6h0v5.5h-1.8V182.2z M59.1,184.9c0,0.3,0,0.5,0.1,0.8c0.3,1.3,1.4,2.2,2.8,2.2
			c2,0,3.1-1.6,3.1-3.9c0-2-1.1-3.8-3-3.8c-1.3,0-2.4,0.9-2.8,2.3c-0.1,0.2-0.1,0.5-0.1,0.8V184.9z"/>
		<path class="st8" d="M70.2,184.3c0,2.5,1.6,3.5,3.5,3.5c1.3,0,2.1-0.2,2.8-0.5l0.3,1.3c-0.7,0.3-1.8,0.6-3.4,0.6
			c-3.1,0-5-2.1-5-5.1s1.8-5.5,4.8-5.5c3.3,0,4.2,2.9,4.2,4.8c0,0.4,0,0.7-0.1,0.9H70.2z M75.7,183c0-1.2-0.5-3-2.6-3
			c-1.9,0-2.7,1.7-2.8,3H75.7z"/>
		<path class="st8" d="M82,176v2.9h2.6v1.4H82v5.5c0,1.3,0.4,2,1.4,2c0.5,0,0.8-0.1,1.1-0.1l0.1,1.4c-0.4,0.1-0.9,0.3-1.6,0.3
			c-0.9,0-1.6-0.3-2-0.8c-0.5-0.5-0.7-1.4-0.7-2.6v-5.5h-1.6v-1.4h1.6v-2.4L82,176z"/>
		<path class="st8" d="M87.6,184.3c0,2.5,1.6,3.5,3.5,3.5c1.3,0,2.1-0.2,2.8-0.5l0.3,1.3c-0.7,0.3-1.8,0.6-3.4,0.6
			c-3.1,0-5-2.1-5-5.1s1.8-5.5,4.8-5.5c3.3,0,4.2,2.9,4.2,4.8c0,0.4,0,0.7-0.1,0.9H87.6z M93,183c0-1.2-0.5-3-2.6-3
			c-1.9,0-2.7,1.7-2.8,3H93z"/>
		<path class="st8" d="M97.1,181.7c0-1,0-1.9-0.1-2.8h1.6l0.1,1.7h0c0.5-1,1.7-1.9,3.4-1.9c1.4,0,3.6,0.8,3.6,4.3v6.1h-1.8v-5.9
			c0-1.6-0.6-3-2.4-3c-1.2,0-2.2,0.9-2.5,1.9c-0.1,0.2-0.1,0.5-0.1,0.9v6.1h-1.8V181.7z"/>
		<path class="st8" d="M116,188.7c-0.5,0.3-1.6,0.6-2.9,0.6c-3.1,0-5.1-2.1-5.1-5.2c0-3.1,2.1-5.4,5.5-5.4c1.1,0,2.1,0.3,2.6,0.5
			l-0.4,1.4c-0.4-0.3-1.1-0.5-2.1-0.5c-2.3,0-3.6,1.7-3.6,3.8c0,2.4,1.5,3.8,3.5,3.8c1,0,1.7-0.3,2.3-0.5L116,188.7z"/>
		<path class="st8" d="M120.2,176.1c0,0.6-0.4,1.1-1.2,1.1c-0.7,0-1.1-0.5-1.1-1.1c0-0.7,0.5-1.2,1.2-1.2
			C119.8,174.9,120.2,175.4,120.2,176.1z M118.2,189.1v-10.2h1.8v10.2H118.2z"/>
		<path class="st8" d="M124.1,184.3c0,2.5,1.6,3.5,3.5,3.5c1.3,0,2.1-0.2,2.8-0.5l0.3,1.3c-0.7,0.3-1.8,0.6-3.4,0.6
			c-3.1,0-5-2.1-5-5.1s1.8-5.5,4.8-5.5c3.3,0,4.2,2.9,4.2,4.8c0,0.4,0,0.7-0.1,0.9H124.1z M129.5,183c0-1.2-0.5-3-2.6-3
			c-1.9,0-2.7,1.7-2.8,3H129.5z"/>
		<path class="st8" d="M133.3,187.2c0.5,0.4,1.5,0.7,2.4,0.7c1.3,0,2-0.7,2-1.5c0-0.9-0.5-1.4-1.9-1.9c-1.8-0.7-2.7-1.7-2.7-2.9
			c0-1.6,1.3-3,3.5-3c1,0,1.9,0.3,2.5,0.6l-0.5,1.3c-0.4-0.3-1.1-0.6-2.1-0.6c-1.1,0-1.7,0.6-1.7,1.4c0,0.8,0.6,1.2,1.9,1.7
			c1.8,0.7,2.7,1.6,2.7,3.1c0,1.8-1.4,3-3.8,3c-1.1,0-2.1-0.3-2.9-0.7L133.3,187.2z"/>
	</g>
	</a>
</g>
<g id="bubbleResearch">
	<a xlink:href="https://www.advising.ufl.edu/pre-health/pre-health-resources/pre-health-links/research/" target="_blank" xlink:alt="Reasearch" xlink:title="Reasearch">
	<circle id="link_x5F_research" class="st10" cx="418.9" cy="175.5" r="75.6"/>
	<g>
		<rect x="361.6" y="163.4" class="st7" width="122" height="45.3"/>
		<path class="st8" d="M377.7,164.5c1.1-0.2,2.7-0.3,4.2-0.3c2.3,0,3.8,0.4,4.9,1.4c0.9,0.8,1.3,1.9,1.3,3.2c0,2.2-1.4,3.7-3.2,4.3
			v0.1c1.3,0.4,2.1,1.6,2.5,3.4c0.5,2.3,1,4,1.3,4.6h-2.2c-0.3-0.5-0.7-1.9-1.1-4c-0.5-2.3-1.4-3.2-3.4-3.3h-2v7.3h-2.2V164.5z
			 M379.9,172.2h2.2c2.3,0,3.8-1.3,3.8-3.2c0-2.2-1.6-3.1-3.9-3.1c-1,0-1.8,0.1-2.1,0.2V172.2z"/>
		<path class="st8" d="M392.4,175.5c0,3,1.9,4.2,4.1,4.2c1.6,0,2.5-0.3,3.3-0.6l0.4,1.6c-0.8,0.4-2.1,0.8-4,0.8
			c-3.7,0-5.9-2.4-5.9-6.1c0-3.6,2.1-6.5,5.7-6.5c3.9,0,5,3.5,5,5.7c0,0.4,0,0.8-0.1,1H392.4z M398.9,173.9c0-1.4-0.6-3.6-3-3.6
			c-2.2,0-3.2,2-3.4,3.6H398.9z"/>
		<path class="st8" d="M403.4,178.9c0.6,0.4,1.8,0.9,2.9,0.9c1.6,0,2.3-0.8,2.3-1.8c0-1-0.6-1.6-2.3-2.2c-2.2-0.8-3.2-2-3.2-3.4
			c0-1.9,1.6-3.5,4.2-3.5c1.2,0,2.3,0.4,3,0.8l-0.5,1.6c-0.5-0.3-1.3-0.7-2.5-0.7c-1.3,0-2,0.7-2,1.6c0,1,0.7,1.4,2.3,2
			c2.1,0.8,3.2,1.8,3.2,3.6c0,2.1-1.6,3.6-4.5,3.6c-1.3,0-2.5-0.3-3.4-0.8L403.4,178.9z"/>
		<path class="st8" d="M414.8,175.5c0,3,1.9,4.2,4.1,4.2c1.6,0,2.5-0.3,3.3-0.6l0.4,1.6c-0.8,0.4-2.1,0.8-4,0.8
			c-3.7,0-5.9-2.4-5.9-6.1c0-3.6,2.1-6.5,5.7-6.5c3.9,0,5,3.5,5,5.7c0,0.4,0,0.8-0.1,1H414.8z M421.3,173.9c0-1.4-0.6-3.6-3-3.6
			c-2.2,0-3.2,2-3.4,3.6H421.3z"/>
		<path class="st8" d="M432.8,181.1l-0.2-1.5h-0.1c-0.7,0.9-2,1.8-3.7,1.8c-2.4,0-3.7-1.7-3.7-3.5c0-2.9,2.6-4.5,7.3-4.5v-0.3
			c0-1-0.3-2.8-2.7-2.8c-1.1,0-2.3,0.4-3.1,0.9l-0.5-1.4c1-0.6,2.5-1.1,4-1.1c3.7,0,4.6,2.5,4.6,4.9v4.5c0,1,0,2.1,0.2,2.9H432.8z
			 M432.5,175c-2.4-0.1-5.1,0.4-5.1,2.7c0,1.4,0.9,2.1,2.1,2.1c1.6,0,2.6-1,2.9-2c0.1-0.2,0.1-0.5,0.1-0.7V175z"/>
		<path class="st8" d="M438.2,172.8c0-1.4,0-2.6-0.1-3.8h1.9l0.1,2.4h0.1c0.5-1.6,1.9-2.6,3.3-2.6c0.3,0,0.4,0,0.6,0.1v2.1
			c-0.2,0-0.5-0.1-0.8-0.1c-1.5,0-2.6,1.2-2.9,2.8c0,0.3-0.1,0.6-0.1,1v6.4h-2.2V172.8z"/>
		<path class="st8" d="M454.7,180.7c-0.6,0.3-1.8,0.7-3.5,0.7c-3.6,0-6-2.5-6-6.2c0-3.7,2.5-6.4,6.5-6.4c1.3,0,2.4,0.3,3,0.6
			l-0.5,1.7c-0.5-0.3-1.3-0.6-2.5-0.6c-2.8,0-4.3,2-4.3,4.6c0,2.8,1.8,4.5,4.2,4.5c1.3,0,2.1-0.3,2.7-0.6L454.7,180.7z"/>
		<path class="st8" d="M457.3,163.4h2.2v7.5h0c0.3-0.6,0.9-1.2,1.6-1.5c0.7-0.4,1.4-0.6,2.3-0.6c1.6,0,4.2,1,4.2,5.2v7.2h-2.2v-6.9
			c0-1.9-0.7-3.6-2.8-3.6c-1.4,0-2.5,1-2.9,2.2c-0.1,0.3-0.1,0.6-0.1,1v7.3h-2.2V163.4z"/>
	</g>
	</a>
</g>
<g id="bubbleShadowing">
	<a xlink:href="https://www.advising.ufl.edu/pre-health/pre-health-resources/pre-health-links/shadowing/" xlink:alt="Shadowing" xlink:title="Shadowing" target="_blank">
	<circle id="link_x5F_shadowing" class="st11" cx="419.2" cy="372.8" r="75.6"/>
	<g>
		<rect x="355.1" y="362.2" class="st7" width="127.5" height="28.2"/>
		<path class="st8" d="M361.4,377.3c1,0.6,2.4,1.1,3.9,1.1c2.2,0,3.5-1.2,3.5-2.9c0-1.6-0.9-2.5-3.2-3.3c-2.8-1-4.4-2.4-4.4-4.8
			c0-2.6,2.2-4.6,5.4-4.6c1.7,0,3,0.4,3.7,0.8l-0.6,1.8c-0.5-0.3-1.7-0.8-3.2-0.8c-2.3,0-3.2,1.4-3.2,2.5c0,1.6,1,2.3,3.3,3.2
			c2.8,1.1,4.3,2.5,4.3,4.9c0,2.6-1.9,4.8-5.9,4.8c-1.6,0-3.4-0.5-4.3-1.1L361.4,377.3z"/>
		<path class="st8" d="M374,362.2h2.2v7.5h0c0.3-0.6,0.9-1.2,1.6-1.5c0.7-0.4,1.4-0.6,2.3-0.6c1.6,0,4.2,1,4.2,5.2v7.2h-2.2V373
			c0-1.9-0.7-3.6-2.8-3.6c-1.4,0-2.5,1-2.9,2.2c-0.1,0.3-0.1,0.6-0.1,1v7.3H374V362.2z"/>
		<path class="st8" d="M394.6,380l-0.2-1.5h-0.1c-0.7,0.9-2,1.8-3.7,1.8c-2.4,0-3.7-1.7-3.7-3.5c0-2.9,2.6-4.5,7.3-4.5V372
			c0-1-0.3-2.8-2.7-2.8c-1.1,0-2.3,0.3-3.1,0.9l-0.5-1.4c1-0.7,2.4-1.1,4-1.1c3.7,0,4.6,2.5,4.6,4.9v4.5c0,1,0.1,2.1,0.2,2.9H394.6z
			 M394.2,373.8c-2.4,0-5.1,0.4-5.1,2.7c0,1.4,1,2.1,2.1,2.1c1.6,0,2.6-1,2.9-2c0.1-0.2,0.1-0.5,0.1-0.7V373.8z"/>
		<path class="st8" d="M410.4,362.2v14.6c0,1.1,0,2.3,0.1,3.1h-2l-0.1-2.1h0c-0.7,1.3-2.1,2.4-4.1,2.4c-2.9,0-5.2-2.5-5.2-6.1
			c0-4,2.5-6.5,5.4-6.5c1.8,0,3.1,0.9,3.6,1.8h0.1v-7.2H410.4z M408.2,372.8c0-0.3,0-0.7-0.1-0.9c-0.3-1.4-1.5-2.5-3.2-2.5
			c-2.3,0-3.6,2-3.6,4.7c0,2.4,1.2,4.5,3.6,4.5c1.5,0,2.8-1,3.2-2.6c0.1-0.3,0.1-0.6,0.1-1V372.8z"/>
		<path class="st8" d="M425,373.8c0,4.5-3.1,6.4-6,6.4c-3.3,0-5.8-2.4-5.8-6.2c0-4,2.6-6.4,6-6.4C422.6,367.6,425,370.1,425,373.8z
			 M415.4,373.9c0,2.6,1.5,4.6,3.7,4.6c2.1,0,3.7-2,3.7-4.7c0-2-1-4.6-3.6-4.6C416.5,369.2,415.4,371.6,415.4,373.9z"/>
		<path class="st8" d="M428.4,367.9l1.6,6.1c0.4,1.3,0.7,2.6,0.9,3.8h0.1c0.3-1.2,0.7-2.5,1.1-3.8l2-6.2h1.8l1.9,6
			c0.5,1.5,0.8,2.7,1.1,3.9h0.1c0.2-1.2,0.5-2.5,0.9-3.9l1.7-6.1h2.2l-3.9,12.1h-2l-1.8-5.8c-0.4-1.3-0.8-2.5-1.1-4h0
			c-0.3,1.5-0.7,2.7-1.1,4l-1.9,5.7h-2l-3.6-12.1H428.4z"/>
		<path class="st8" d="M448.4,364.5c0,0.8-0.5,1.3-1.4,1.3c-0.8,0-1.3-0.6-1.3-1.3c0-0.8,0.6-1.4,1.4-1.4
			C447.9,363.1,448.4,363.7,448.4,364.5z M446,380v-12.1h2.2V380H446z"/>
		<path class="st8" d="M451.8,371.1c0-1.2,0-2.3-0.1-3.3h1.9l0.1,2h0c0.6-1.1,2-2.3,4-2.3c1.7,0,4.3,1,4.3,5.1v7.2h-2.2v-7
			c0-1.9-0.7-3.6-2.8-3.6c-1.4,0-2.6,1-2.9,2.3c-0.1,0.3-0.2,0.6-0.2,1v7.3h-2.2V371.1z"/>
		<path class="st8" d="M476.1,367.9c0,0.9-0.1,1.8-0.1,3.3v7c0,2.8-0.5,4.5-1.7,5.5c-1.2,1.1-2.9,1.4-4.4,1.4c-1.5,0-3-0.3-4-1
			l0.5-1.7c0.8,0.5,2,0.9,3.5,0.9c2.2,0,3.9-1.2,3.9-4.2v-1.3h0c-0.7,1.1-2,2-3.8,2c-3,0-5.1-2.5-5.1-5.9c0-4.1,2.7-6.4,5.4-6.4
			c2.1,0,3.2,1.1,3.8,2.1h0.1l0.1-1.8H476.1z M473.8,372.6c0-0.4,0-0.7-0.1-1c-0.4-1.3-1.5-2.3-3.1-2.3c-2.1,0-3.6,1.8-3.6,4.6
			c0,2.4,1.2,4.3,3.6,4.3c1.3,0,2.6-0.8,3-2.2c0.1-0.4,0.2-0.8,0.2-1.2V372.6z"/>
	</g>
	</a>
</g>
<g id="bubbleHealthcareExperience">
	<a xlink:href="https://www.advising.ufl.edu/pre-health/pre-health-resources/pre-health-links/volunteer-resources/" xlink:alt="Healthcare Experience" xlink:title="Healthcare Experience" target="_blank">
	<circle id="link_x5F_healthcare" class="st12" cx="248.2" cy="471.8" r="75.6"/>
	<g>
		<rect x="186.3" y="448.6" class="st7" width="125.2" height="76.2"/>
		<path class="st8" d="M196.6,449.5v7h8.1v-7h2.2v16.8h-2.2v-7.9h-8.1v7.9h-2.2v-16.8H196.6z"/>
		<path class="st8" d="M211.9,460.7c0,3,1.9,4.2,4.1,4.2c1.6,0,2.5-0.3,3.3-0.6l0.4,1.6c-0.8,0.3-2.1,0.8-4,0.8
			c-3.7,0-5.9-2.4-5.9-6.1s2.1-6.5,5.7-6.5c3.9,0,5,3.5,5,5.7c0,0.5,0,0.8-0.1,1H211.9z M218.3,459.1c0-1.4-0.6-3.6-3-3.6
			c-2.2,0-3.2,2-3.4,3.6H218.3z"/>
		<path class="st8" d="M229.9,466.3l-0.2-1.5h-0.1c-0.7,0.9-2,1.8-3.7,1.8c-2.4,0-3.7-1.7-3.7-3.5c0-2.9,2.6-4.5,7.3-4.5v-0.3
			c0-1-0.3-2.8-2.7-2.8c-1.1,0-2.3,0.3-3.1,0.9l-0.5-1.4c1-0.7,2.4-1.1,4-1.1c3.7,0,4.6,2.5,4.6,4.9v4.5c0,1,0.1,2.1,0.2,2.9H229.9z
			 M229.6,460.1c-2.4,0-5.1,0.4-5.1,2.7c0,1.4,0.9,2.1,2.1,2.1c1.6,0,2.6-1,2.9-2c0.1-0.2,0.1-0.5,0.1-0.7V460.1z"/>
		<path class="st8" d="M235.2,448.6h2.2v17.7h-2.2V448.6z"/>
		<path class="st8" d="M243.8,450.7v3.5h3.1v1.7h-3.1v6.5c0,1.5,0.4,2.3,1.6,2.3c0.6,0,1-0.1,1.3-0.1l0.1,1.6
			c-0.4,0.2-1.1,0.3-1.9,0.3c-1,0-1.8-0.3-2.4-0.9c-0.6-0.6-0.9-1.7-0.9-3.1v-6.6h-1.9v-1.7h1.9v-2.9L243.8,450.7z"/>
		<path class="st8" d="M249.4,448.6h2.2v7.5h0.1c0.3-0.6,0.9-1.2,1.6-1.5c0.6-0.4,1.4-0.6,2.2-0.6c1.6,0,4.2,1,4.2,5.2v7.2h-2.2
			v-6.9c0-1.9-0.7-3.6-2.8-3.6c-1.4,0-2.5,1-2.9,2.2c-0.1,0.3-0.2,0.6-0.2,1v7.3h-2.2V448.6z"/>
		<path class="st8" d="M271.9,465.9c-0.6,0.3-1.8,0.7-3.5,0.7c-3.6,0-6-2.5-6-6.2c0-3.7,2.5-6.4,6.5-6.4c1.3,0,2.4,0.3,3,0.6
			l-0.5,1.7c-0.5-0.3-1.3-0.6-2.5-0.6c-2.8,0-4.3,2-4.3,4.6c0,2.8,1.8,4.5,4.2,4.5c1.3,0,2.1-0.3,2.7-0.6L271.9,465.9z"/>
		<path class="st8" d="M281.2,466.3l-0.2-1.5h-0.1c-0.7,0.9-2,1.8-3.7,1.8c-2.4,0-3.7-1.7-3.7-3.5c0-2.9,2.6-4.5,7.3-4.5v-0.3
			c0-1-0.3-2.8-2.7-2.8c-1.1,0-2.3,0.3-3.1,0.9l-0.5-1.4c1-0.7,2.5-1.1,4-1.1c3.7,0,4.6,2.5,4.6,4.9v4.5c0,1,0,2.1,0.2,2.9H281.2z
			 M280.9,460.1c-2.4,0-5.1,0.4-5.1,2.7c0,1.4,0.9,2.1,2.1,2.1c1.6,0,2.6-1,2.9-2c0.1-0.2,0.1-0.5,0.1-0.7V460.1z"/>
		<path class="st8" d="M286.5,458c0-1.4,0-2.6-0.1-3.8h1.9l0.1,2.4h0.1c0.5-1.6,1.9-2.6,3.3-2.6c0.3,0,0.4,0,0.6,0.1v2.1
			c-0.2,0-0.5-0.1-0.8-0.1c-1.5,0-2.6,1.2-2.9,2.8c0,0.3-0.1,0.7-0.1,1v6.4h-2.2V458z"/>
		<path class="st8" d="M295.7,460.7c0,3,2,4.2,4.1,4.2c1.6,0,2.5-0.3,3.3-0.6l0.4,1.6c-0.8,0.3-2.1,0.8-4,0.8
			c-3.7,0-5.9-2.4-5.9-6.1s2.1-6.5,5.7-6.5c3.9,0,5,3.5,5,5.7c0,0.5,0,0.8-0.1,1H295.7z M302.1,459.1c0-1.4-0.6-3.6-3-3.6
			c-2.2,0-3.2,2-3.4,3.6H302.1z"/>
		<path class="st8" d="M202.1,488.4h-6.5v6.1h7.3v1.8h-9.5v-16.8h9.1v1.8h-6.9v5.3h6.5V488.4z"/>
		<path class="st8" d="M206.6,484.2l1.7,2.6c0.5,0.7,0.8,1.3,1.2,2h0.1c0.4-0.7,0.8-1.3,1.2-2l1.7-2.6h2.4l-4.1,5.8l4.2,6.2h-2.5
			l-1.8-2.7c-0.5-0.7-0.9-1.4-1.3-2.1h-0.1c-0.4,0.7-0.8,1.4-1.3,2.1l-1.7,2.7H204l4.3-6.2l-4.1-5.9H206.6z"/>
		<path class="st8" d="M217.2,488.2c0-1.5-0.1-2.8-0.1-3.9h2l0.1,2.1h0.1c0.9-1.5,2.3-2.3,4.3-2.3c2.9,0,5.1,2.5,5.1,6.1
			c0,4.3-2.6,6.5-5.5,6.5c-1.6,0-3-0.7-3.7-1.9h0v6.6h-2.2V488.2z M219.4,491.4c0,0.3,0,0.6,0.1,0.9c0.4,1.5,1.7,2.6,3.3,2.6
			c2.3,0,3.7-1.9,3.7-4.7c0-2.4-1.3-4.5-3.6-4.5c-1.5,0-2.9,1.1-3.3,2.7c-0.1,0.3-0.1,0.6-0.1,0.9V491.4z"/>
		<path class="st8" d="M232.6,490.7c0,3,1.9,4.2,4.1,4.2c1.6,0,2.5-0.3,3.3-0.6l0.4,1.6c-0.8,0.3-2.1,0.8-4,0.8
			c-3.7,0-5.9-2.4-5.9-6.1s2.1-6.5,5.7-6.5c3.9,0,5,3.5,5,5.7c0,0.5,0,0.8-0.1,1H232.6z M239.1,489.1c0-1.4-0.6-3.6-3-3.6
			c-2.2,0-3.2,2-3.4,3.6H239.1z"/>
		<path class="st8" d="M243.9,488c0-1.4,0-2.6-0.1-3.8h1.9l0.1,2.4h0.1c0.5-1.6,1.9-2.6,3.3-2.6c0.3,0,0.4,0,0.6,0.1v2.1
			c-0.2,0-0.5-0.1-0.8-0.1c-1.5,0-2.6,1.2-2.9,2.8c-0.1,0.3-0.1,0.7-0.1,1v6.4h-2.2V488z"/>
		<path class="st8" d="M254.7,480.8c0,0.8-0.5,1.3-1.4,1.3c-0.8,0-1.3-0.6-1.3-1.3c0-0.8,0.6-1.4,1.4-1.4
			C254.1,479.4,254.7,480,254.7,480.8z M252.2,496.3v-12.1h2.2v12.1H252.2z"/>
		<path class="st8" d="M259.3,490.7c0,3,2,4.2,4.1,4.2c1.6,0,2.5-0.3,3.3-0.6l0.4,1.6c-0.8,0.3-2.1,0.8-4,0.8
			c-3.7,0-5.9-2.4-5.9-6.1s2.1-6.5,5.7-6.5c3.9,0,5,3.5,5,5.7c0,0.5,0,0.8-0.1,1H259.3z M265.7,489.1c0-1.4-0.6-3.6-3-3.6
			c-2.2,0-3.2,2-3.4,3.6H265.7z"/>
		<path class="st8" d="M270.6,487.5c0-1.2,0-2.3-0.1-3.3h2l0.1,2h0c0.6-1.1,2-2.3,4-2.3c1.7,0,4.3,1,4.3,5.1v7.2h-2.2v-7
			c0-1.9-0.7-3.6-2.8-3.6c-1.4,0-2.6,1-2.9,2.3c-0.1,0.3-0.1,0.6-0.1,1v7.3h-2.2V487.5z"/>
		<path class="st8" d="M293.1,495.9c-0.6,0.3-1.8,0.7-3.5,0.7c-3.6,0-6-2.5-6-6.2c0-3.7,2.5-6.4,6.5-6.4c1.3,0,2.4,0.3,3,0.6
			l-0.5,1.7c-0.5-0.3-1.3-0.6-2.5-0.6c-2.8,0-4.3,2-4.3,4.6c0,2.8,1.8,4.5,4.2,4.5c1.3,0,2.1-0.3,2.7-0.6L293.1,495.9z"/>
		<path class="st8" d="M296.7,490.7c0,3,2,4.2,4.1,4.2c1.6,0,2.5-0.3,3.3-0.6l0.4,1.6c-0.8,0.3-2.1,0.8-4,0.8
			c-3.7,0-5.9-2.4-5.9-6.1s2.1-6.5,5.7-6.5c3.9,0,5,3.5,5,5.7c0,0.5,0,0.8-0.1,1H296.7z M303.2,489.1c0-1.4-0.6-3.6-3-3.6
			c-2.2,0-3.2,2-3.4,3.6H303.2z"/>
	</g>
	</a>
</g>
<g id="bubbleCommunityService">
	<a xlink:href="https://www.advising.ufl.edu/pre-health/pre-health-resources/pre-health-links/volunteer-resources/" xlink:alt="Community Service Non-medical" xlink:title="Community Service Non-medical" target="_blank">
	<circle id="link_x5F_communityService" class="st13" cx="77.5" cy="373.4" r="75.6"/>
	<g>
		<rect x="12.6" y="338.6" class="st7" width="129.5" height="69.5"/>
		<path class="st8" d="M38.9,352.3c-0.6,0.3-1.9,0.6-3.6,0.6c-3.8,0-6.7-2.4-6.7-6.8c0-4.2,2.9-7.1,7-7.1c1.7,0,2.7,0.4,3.2,0.6
			l-0.4,1.4c-0.7-0.3-1.6-0.6-2.7-0.6c-3.2,0-5.3,2-5.3,5.6c0,3.3,1.9,5.4,5.2,5.4c1.1,0,2.1-0.2,2.8-0.6L38.9,352.3z"/>
		<path class="st8" d="M49.6,347.8c0,3.6-2.5,5.1-4.8,5.1c-2.6,0-4.6-1.9-4.6-5c0-3.2,2.1-5.1,4.8-5.1
			C47.7,342.8,49.6,344.9,49.6,347.8z M41.9,347.9c0,2.1,1.2,3.7,2.9,3.7c1.7,0,2.9-1.6,2.9-3.8c0-1.6-0.8-3.7-2.9-3.7
			C42.8,344.2,41.9,346.1,41.9,347.9z"/>
		<path class="st8" d="M51.8,345.7c0-1,0-1.8-0.1-2.6h1.5l0.1,1.6h0.1c0.5-0.9,1.4-1.8,3-1.8c1.3,0,2.3,0.8,2.7,1.9h0
			c0.3-0.5,0.7-1,1.1-1.3c0.6-0.4,1.2-0.7,2.1-0.7c1.3,0,3.2,0.8,3.2,4.2v5.7h-1.7v-5.5c0-1.9-0.7-3-2.1-3c-1,0-1.8,0.7-2.1,1.6
			c-0.1,0.2-0.1,0.6-0.1,0.9v6h-1.7V347c0-1.5-0.7-2.7-2-2.7c-1.1,0-1.9,0.9-2.2,1.8c-0.1,0.3-0.1,0.6-0.1,0.9v5.8h-1.7V345.7z"/>
		<path class="st8" d="M68.5,345.7c0-1,0-1.8-0.1-2.6h1.5l0.1,1.6h0.1c0.5-0.9,1.4-1.8,3-1.8c1.3,0,2.3,0.8,2.7,1.9h0
			c0.3-0.5,0.7-1,1.1-1.3c0.6-0.4,1.2-0.7,2.1-0.7c1.3,0,3.2,0.8,3.2,4.2v5.7h-1.7v-5.5c0-1.9-0.7-3-2.1-3c-1,0-1.8,0.7-2.1,1.6
			c-0.1,0.2-0.1,0.6-0.1,0.9v6h-1.7V347c0-1.5-0.7-2.7-2-2.7c-1.1,0-1.9,0.9-2.2,1.8c-0.1,0.3-0.1,0.6-0.1,0.9v5.8h-1.7V345.7z"/>
		<path class="st8" d="M93.3,350.1c0,1,0,1.9,0.1,2.6h-1.6l-0.1-1.6h0c-0.5,0.8-1.5,1.8-3.2,1.8c-1.5,0-3.3-0.8-3.3-4.2v-5.7h1.8
			v5.4c0,1.8,0.6,3.1,2.2,3.1c1.2,0,2-0.8,2.3-1.6c0.1-0.3,0.2-0.6,0.2-0.9v-5.9h1.8V350.1z"/>
		<path class="st8" d="M96.2,345.7c0-1,0-1.8-0.1-2.6h1.6l0.1,1.6h0c0.5-0.9,1.6-1.8,3.2-1.8c1.3,0,3.4,0.8,3.4,4.1v5.8h-1.8v-5.6
			c0-1.6-0.6-2.9-2.2-2.9c-1.2,0-2.1,0.8-2.4,1.8c-0.1,0.2-0.1,0.5-0.1,0.8v5.8h-1.8V345.7z"/>
		<path class="st8" d="M109.2,340.3c0,0.6-0.4,1.1-1.1,1.1c-0.6,0-1.1-0.5-1.1-1.1c0-0.6,0.5-1.1,1.1-1.1
			C108.8,339.2,109.2,339.7,109.2,340.3z M107.3,352.8v-9.7h1.8v9.7H107.3z"/>
		<path class="st8" d="M114.1,340.3v2.8h2.5v1.3h-2.5v5.2c0,1.2,0.3,1.9,1.3,1.9c0.5,0,0.8-0.1,1-0.1l0.1,1.3
			c-0.3,0.1-0.9,0.2-1.6,0.2c-0.8,0-1.5-0.3-1.9-0.7c-0.5-0.5-0.7-1.4-0.7-2.5v-5.3h-1.5v-1.3h1.5v-2.3L114.1,340.3z"/>
		<path class="st8" d="M119.4,343.1l2.1,5.7c0.2,0.6,0.5,1.4,0.6,2h0c0.2-0.6,0.4-1.3,0.6-2l1.9-5.7h1.9l-2.6,6.9
			c-1.3,3.3-2.1,5-3.3,6.1c-0.9,0.8-1.7,1.1-2.2,1.1l-0.4-1.5c0.4-0.1,1-0.4,1.5-0.9c0.5-0.4,1.1-1.1,1.5-2c0.1-0.2,0.1-0.3,0.1-0.4
			c0-0.1,0-0.2-0.1-0.5l-3.6-8.9H119.4z"/>
		<path class="st8" d="M48.5,374.6c0.8,0.5,1.9,0.9,3.1,0.9c1.8,0,2.8-0.9,2.8-2.3c0-1.3-0.7-2-2.5-2.7c-2.2-0.8-3.6-1.9-3.6-3.8
			c0-2.1,1.7-3.7,4.4-3.7c1.4,0,2.4,0.3,3,0.7l-0.5,1.4c-0.4-0.2-1.3-0.6-2.6-0.6c-1.8,0-2.5,1.1-2.5,2c0,1.3,0.8,1.9,2.7,2.6
			c2.3,0.9,3.4,2,3.4,4c0,2.1-1.5,3.9-4.7,3.9c-1.3,0-2.7-0.4-3.4-0.9L48.5,374.6z"/>
		<path class="st8" d="M59.7,372.2c0,2.4,1.6,3.4,3.3,3.4c1.3,0,2-0.2,2.7-0.5l0.3,1.3c-0.6,0.3-1.7,0.6-3.2,0.6c-3,0-4.8-2-4.8-4.9
			c0-2.9,1.7-5.2,4.5-5.2c3.2,0,4,2.8,4,4.6c0,0.4,0,0.6-0.1,0.8H59.7z M64.8,371c0-1.1-0.5-2.9-2.4-2.9c-1.8,0-2.6,1.6-2.7,2.9
			H64.8z"/>
		<path class="st8" d="M68.7,370.1c0-1.1,0-2.1-0.1-3h1.5l0.1,1.9h0.1c0.4-1.3,1.5-2.1,2.7-2.1c0.2,0,0.3,0,0.5,0.1v1.7
			c-0.2,0-0.4-0.1-0.6-0.1c-1.2,0-2.1,0.9-2.4,2.3c0,0.2-0.1,0.5-0.1,0.8v5.2h-1.7V370.1z"/>
		<path class="st8" d="M76.4,367.1l1.9,5.4c0.3,0.9,0.6,1.7,0.8,2.5h0.1c0.2-0.8,0.5-1.6,0.8-2.5l1.9-5.4h1.8l-3.8,9.7h-1.7
			l-3.7-9.7H76.4z"/>
		<path class="st8" d="M87.3,364.3c0,0.6-0.4,1.1-1.1,1.1c-0.6,0-1.1-0.5-1.1-1.1c0-0.6,0.5-1.1,1.1-1.1
			C86.9,363.2,87.3,363.7,87.3,364.3z M85.4,376.8v-9.7h1.8v9.7H85.4z"/>
		<path class="st8" d="M97,376.4c-0.5,0.2-1.5,0.6-2.8,0.6c-2.9,0-4.8-2-4.8-4.9c0-3,2-5.1,5.2-5.1c1,0,2,0.3,2.4,0.5l-0.4,1.4
			c-0.4-0.2-1.1-0.5-2-0.5c-2.2,0-3.4,1.6-3.4,3.7c0,2.2,1.4,3.6,3.4,3.6c1,0,1.7-0.3,2.2-0.5L97,376.4z"/>
		<path class="st8" d="M99.9,372.2c0,2.4,1.6,3.4,3.3,3.4c1.3,0,2-0.2,2.7-0.5l0.3,1.3c-0.6,0.3-1.7,0.6-3.2,0.6c-3,0-4.8-2-4.8-4.9
			c0-2.9,1.7-5.2,4.5-5.2c3.2,0,4,2.8,4,4.6c0,0.4,0,0.6-0.1,0.8H99.9z M105,371c0-1.1-0.5-2.9-2.4-2.9c-1.8,0-2.6,1.6-2.7,2.9H105z
			"/>
		<path class="st8" d="M25.2,400.8v-13.5h1.9l4.3,6.8c1,1.6,1.8,3,2.4,4.4l0,0c-0.2-1.8-0.2-3.4-0.2-5.5v-5.6h1.6v13.5h-1.8
			l-4.3-6.8c-0.9-1.5-1.8-3-2.5-4.5l-0.1,0c0.1,1.7,0.1,3.3,0.1,5.6v5.8H25.2z"/>
		<path class="st8" d="M47.1,395.8c0,3.6-2.5,5.1-4.8,5.1c-2.6,0-4.6-1.9-4.6-5c0-3.2,2.1-5.1,4.8-5.1
			C45.2,390.8,47.1,392.9,47.1,395.8z M39.4,395.9c0,2.1,1.2,3.7,2.9,3.7c1.7,0,2.9-1.6,2.9-3.8c0-1.6-0.8-3.7-2.9-3.7
			C40.3,392.2,39.4,394.1,39.4,395.9z"/>
		<path class="st8" d="M49.3,393.7c0-1,0-1.8-0.1-2.6h1.6l0.1,1.6h0c0.5-0.9,1.6-1.8,3.2-1.8c1.3,0,3.4,0.8,3.4,4.1v5.8h-1.8v-5.6
			c0-1.6-0.6-2.9-2.2-2.9c-1.2,0-2.1,0.8-2.4,1.8c-0.1,0.2-0.1,0.5-0.1,0.8v5.8h-1.8V393.7z"/>
		<path class="st8" d="M64.5,394.7v1.3h-4.9v-1.3H64.5z"/>
		<path class="st8" d="M66.5,393.7c0-1,0-1.8-0.1-2.6H68l0.1,1.6h0.1c0.5-0.9,1.4-1.8,3-1.8c1.3,0,2.3,0.8,2.7,1.9h0
			c0.3-0.5,0.7-1,1.1-1.3c0.6-0.4,1.2-0.7,2.1-0.7c1.3,0,3.2,0.8,3.2,4.2v5.7h-1.7v-5.5c0-1.9-0.7-3-2.1-3c-1,0-1.8,0.7-2.1,1.6
			c-0.1,0.2-0.1,0.6-0.1,0.9v6h-1.7V395c0-1.5-0.7-2.7-2-2.7c-1.1,0-1.9,0.9-2.2,1.8c-0.1,0.3-0.1,0.6-0.1,0.9v5.8h-1.7V393.7z"/>
		<path class="st8" d="M84.2,396.2c0,2.4,1.6,3.4,3.3,3.4c1.3,0,2-0.2,2.7-0.5l0.3,1.3c-0.6,0.3-1.7,0.6-3.2,0.6c-3,0-4.8-2-4.8-4.9
			c0-2.9,1.7-5.2,4.5-5.2c3.2,0,4,2.8,4,4.6c0,0.4,0,0.6-0.1,0.8H84.2z M89.3,395c0-1.1-0.5-2.9-2.4-2.9c-1.8,0-2.6,1.6-2.7,2.9
			H89.3z"/>
		<path class="st8" d="M101.6,386.5v11.7c0,0.9,0,1.8,0.1,2.5h-1.6l-0.1-1.7h0c-0.5,1.1-1.7,1.9-3.3,1.9c-2.3,0-4.1-2-4.1-4.9
			c0-3.2,2-5.2,4.3-5.2c1.5,0,2.5,0.7,2.9,1.5h0v-5.8H101.6z M99.8,395c0-0.2,0-0.5-0.1-0.7c-0.3-1.1-1.2-2-2.5-2
			c-1.8,0-2.9,1.6-2.9,3.7c0,2,1,3.6,2.9,3.6c1.2,0,2.3-0.8,2.6-2.1c0.1-0.2,0.1-0.5,0.1-0.8V395z"/>
		<path class="st8" d="M106.5,388.3c0,0.6-0.4,1.1-1.1,1.1c-0.6,0-1.1-0.5-1.1-1.1c0-0.6,0.5-1.1,1.1-1.1
			C106,387.2,106.5,387.7,106.5,388.3z M104.5,400.8v-9.7h1.8v9.7H104.5z"/>
		<path class="st8" d="M116.1,400.4c-0.5,0.2-1.5,0.6-2.8,0.6c-2.9,0-4.8-2-4.8-4.9c0-3,2-5.1,5.2-5.1c1,0,2,0.3,2.4,0.5l-0.4,1.4
			c-0.4-0.2-1.1-0.5-2-0.5c-2.2,0-3.4,1.6-3.4,3.7c0,2.2,1.4,3.6,3.4,3.6c1,0,1.7-0.3,2.2-0.5L116.1,400.4z"/>
		<path class="st8" d="M123.5,400.8l-0.1-1.2h-0.1c-0.5,0.8-1.6,1.4-3,1.4c-2,0-3-1.4-3-2.8c0-2.3,2.1-3.6,5.8-3.6v-0.2
			c0-0.8-0.2-2.2-2.2-2.2c-0.9,0-1.8,0.3-2.5,0.7l-0.4-1.2c0.8-0.5,2-0.9,3.2-0.9c3,0,3.7,2,3.7,4v3.6c0,0.8,0,1.7,0.2,2.3H123.5z
			 M123.2,395.8c-1.9,0-4.1,0.3-4.1,2.2c0,1.1,0.8,1.7,1.7,1.7c1.3,0,2.1-0.8,2.3-1.6c0.1-0.2,0.1-0.4,0.1-0.6V395.8z"/>
		<path class="st8" d="M127.8,386.5h1.8v14.2h-1.8V386.5z"/>
	</g>
	</a>
</g>
<g id="bubbleAcademic">
	<a xlink:href="courses.php" xlink:alt="Academic Entrance Exams" xlink:title="Academic Entrance Exams">
	<circle id="link_x5F_academics" class="st14" cx="248.2" cy="77.1" r="75.6"/>
	<g>
		<rect x="191.3" y="41.2" class="st7" width="114.5" height="22.5"/>
		<path class="st8" d="M196.8,53.7l-1.7,5.3h-2.2l5.7-16.8h2.6l5.7,16.8h-2.3l-1.8-5.3H196.8z M202.3,52l-1.6-4.8
			c-0.4-1.1-0.6-2.1-0.9-3.1h0c-0.3,1-0.5,2-0.9,3l-1.6,4.9H202.3z"/>
		<path class="st8" d="M217.6,58.5c-0.6,0.3-1.8,0.7-3.5,0.7c-3.6,0-6-2.5-6-6.2c0-3.7,2.5-6.4,6.5-6.4c1.3,0,2.4,0.3,3,0.6
			l-0.5,1.7c-0.5-0.3-1.3-0.6-2.5-0.6c-2.8,0-4.3,2-4.3,4.6c0,2.8,1.8,4.5,4.2,4.5c1.3,0,2.1-0.3,2.7-0.6L217.6,58.5z"/>
		<path class="st8" d="M226.9,59l-0.2-1.5h-0.1c-0.7,0.9-2,1.8-3.7,1.8c-2.4,0-3.7-1.7-3.7-3.5c0-2.9,2.6-4.5,7.3-4.5V51
			c0-1-0.3-2.8-2.7-2.8c-1.1,0-2.3,0.4-3.1,0.9l-0.5-1.4c1-0.6,2.4-1.1,4-1.1c3.7,0,4.6,2.5,4.6,4.9v4.5c0,1,0.1,2.1,0.2,2.9H226.9z
			 M226.6,52.8c-2.4-0.1-5.1,0.4-5.1,2.7c0,1.4,0.9,2.1,2.1,2.1c1.6,0,2.6-1,2.9-2c0.1-0.2,0.1-0.5,0.1-0.7V52.8z"/>
		<path class="st8" d="M242.7,41.2v14.6c0,1.1,0,2.3,0.1,3.1h-2l-0.1-2.1h0c-0.7,1.3-2.1,2.4-4.1,2.4c-2.9,0-5.2-2.5-5.2-6.1
			c0-4,2.5-6.5,5.4-6.5c1.8,0,3.1,0.9,3.6,1.8h0.1v-7.2H242.7z M240.5,51.8c0-0.3,0-0.6-0.1-0.9c-0.3-1.4-1.5-2.5-3.2-2.5
			c-2.3,0-3.6,2-3.6,4.7c0,2.4,1.2,4.5,3.6,4.5c1.5,0,2.8-1,3.2-2.6c0.1-0.3,0.1-0.6,0.1-0.9V51.8z"/>
		<path class="st8" d="M247.6,53.3c0,3,1.9,4.2,4.1,4.2c1.6,0,2.5-0.3,3.3-0.6l0.4,1.6c-0.8,0.4-2.1,0.8-4,0.8
			c-3.7,0-5.9-2.4-5.9-6.1s2.1-6.5,5.7-6.5c3.9,0,5,3.5,5,5.7c0,0.4,0,0.8-0.1,1H247.6z M254,51.7c0-1.4-0.6-3.6-3-3.6
			c-2.2,0-3.2,2-3.4,3.6H254z"/>
		<path class="st8" d="M258.9,50.1c0-1.3,0-2.3-0.1-3.3h1.9l0.1,1.9h0.1c0.7-1.1,1.8-2.2,3.8-2.2c1.6,0,2.9,1,3.4,2.4h0
			c0.4-0.7,0.9-1.2,1.3-1.6c0.7-0.6,1.5-0.9,2.7-0.9c1.6,0,4,1,4,5.2V59H274v-6.8c0-2.3-0.8-3.7-2.6-3.7c-1.3,0-2.2,0.9-2.6,2
			c-0.1,0.3-0.2,0.7-0.2,1.1V59h-2.1v-7.2c0-1.9-0.8-3.3-2.5-3.3c-1.4,0-2.4,1.1-2.7,2.2c-0.1,0.3-0.2,0.7-0.2,1.1V59h-2.1V50.1z"/>
		<path class="st8" d="M282.2,43.5c0,0.7-0.5,1.3-1.4,1.3c-0.8,0-1.3-0.6-1.3-1.3c0-0.8,0.6-1.4,1.4-1.4
			C281.7,42.1,282.2,42.7,282.2,43.5z M279.7,59V46.9h2.2V59H279.7z"/>
		<path class="st8" d="M294.2,58.5c-0.6,0.3-1.8,0.7-3.5,0.7c-3.6,0-6-2.5-6-6.2c0-3.7,2.5-6.4,6.5-6.4c1.3,0,2.4,0.3,3,0.6
			l-0.5,1.7c-0.5-0.3-1.3-0.6-2.5-0.6c-2.8,0-4.3,2-4.3,4.6c0,2.8,1.8,4.5,4.2,4.5c1.3,0,2.1-0.3,2.7-0.6L294.2,58.5z"/>
		<path class="st8" d="M296.5,56.7c0.6,0.4,1.8,0.9,2.9,0.9c1.6,0,2.3-0.8,2.3-1.8c0-1-0.6-1.6-2.3-2.2c-2.2-0.8-3.2-2-3.2-3.4
			c0-1.9,1.6-3.5,4.2-3.5c1.2,0,2.3,0.4,3,0.8l-0.5,1.6c-0.5-0.3-1.3-0.7-2.5-0.7c-1.3,0-2,0.7-2,1.6c0,1,0.7,1.4,2.3,2
			c2.1,0.8,3.2,1.8,3.2,3.6c0,2.1-1.6,3.6-4.5,3.6c-1.3,0-2.5-0.3-3.4-0.8L296.5,56.7z"/>
	</g>
	<g>
		<rect x="183.3" y="77.1" class="st7" width="132" height="49.3"/>
		<path class="st8" d="M219.6,85.3h-5.5v5.1h6.1V92h-8V77.8h7.6v1.5h-5.8v4.5h5.5V85.3z"/>
		<path class="st8" d="M222.5,84.5c0-1,0-1.9-0.1-2.8h1.6l0.1,1.7h0c0.5-1,1.7-1.9,3.4-1.9c1.4,0,3.6,0.8,3.6,4.3V92h-1.8v-5.9
			c0-1.6-0.6-3-2.4-3c-1.2,0-2.2,0.9-2.5,1.9c-0.1,0.2-0.1,0.5-0.1,0.9V92h-1.8V84.5z"/>
		<path class="st8" d="M236.3,78.9v2.9h2.6v1.4h-2.6v5.5c0,1.3,0.4,2,1.4,2c0.5,0,0.8-0.1,1.1-0.1l0.1,1.4c-0.4,0.1-0.9,0.3-1.6,0.3
			c-0.9,0-1.6-0.3-2-0.8c-0.5-0.5-0.7-1.4-0.7-2.6v-5.5h-1.6v-1.4h1.6v-2.4L236.3,78.9z"/>
		<path class="st8" d="M241.1,85c0-1.2,0-2.2-0.1-3.2h1.6l0.1,2h0.1c0.5-1.4,1.6-2.2,2.8-2.2c0.2,0,0.4,0,0.5,0.1v1.7
			c-0.2,0-0.4-0.1-0.6-0.1c-1.3,0-2.2,1-2.5,2.4c0,0.3-0.1,0.5-0.1,0.9V92h-1.8V85z"/>
		<path class="st8" d="M253.4,92l-0.1-1.3h-0.1c-0.6,0.8-1.7,1.5-3.1,1.5c-2.1,0-3.1-1.4-3.1-2.9c0-2.5,2.2-3.8,6.1-3.8v-0.2
			c0-0.8-0.2-2.4-2.3-2.4c-0.9,0-1.9,0.3-2.6,0.8l-0.4-1.2c0.8-0.5,2.1-0.9,3.3-0.9c3.1,0,3.9,2.1,3.9,4.2v3.8c0,0.9,0,1.7,0.2,2.4
			H253.4z M253.2,86.8c-2,0-4.3,0.3-4.3,2.3c0,1.2,0.8,1.8,1.7,1.8c1.3,0,2.2-0.8,2.5-1.7c0.1-0.2,0.1-0.4,0.1-0.6V86.8z"/>
		<path class="st8" d="M257.9,84.5c0-1,0-1.9-0.1-2.8h1.6l0.1,1.7h0c0.5-1,1.7-1.9,3.4-1.9c1.4,0,3.6,0.8,3.6,4.3V92h-1.8v-5.9
			c0-1.6-0.6-3-2.4-3c-1.2,0-2.2,0.9-2.5,1.9c-0.1,0.2-0.1,0.5-0.1,0.9V92h-1.8V84.5z"/>
		<path class="st8" d="M276.8,91.6c-0.5,0.3-1.6,0.6-2.9,0.6c-3.1,0-5.1-2.1-5.1-5.2c0-3.1,2.1-5.4,5.5-5.4c1.1,0,2.1,0.3,2.6,0.5
			l-0.4,1.4c-0.4-0.3-1.1-0.5-2.1-0.5c-2.3,0-3.6,1.7-3.6,3.8c0,2.4,1.5,3.8,3.5,3.8c1,0,1.7-0.3,2.3-0.5L276.8,91.6z"/>
		<path class="st8" d="M279.9,87.2c0,2.5,1.6,3.5,3.5,3.5c1.3,0,2.1-0.2,2.8-0.5l0.3,1.3c-0.7,0.3-1.8,0.6-3.4,0.6
			c-3.1,0-5-2.1-5-5.1s1.8-5.5,4.8-5.5c3.3,0,4.2,2.9,4.2,4.8c0,0.4,0,0.7-0.1,0.9H279.9z M285.3,85.9c0-1.2-0.5-3-2.6-3
			c-1.9,0-2.7,1.7-2.8,3H285.3z"/>
		<path class="st8" d="M230.2,110.5h-5.5v5.1h6.1v1.5h-8V103h7.6v1.5h-5.8v4.5h5.5V110.5z"/>
		<path class="st8" d="M234,107l1.4,2.2c0.4,0.6,0.7,1.1,1,1.7h0.1c0.3-0.6,0.7-1.1,1-1.7l1.4-2.2h2l-3.5,4.9l3.6,5.2H239l-1.5-2.3
			c-0.4-0.6-0.7-1.2-1.1-1.8h0c-0.3,0.6-0.7,1.2-1.1,1.8l-1.5,2.3h-2l3.6-5.2l-3.4-5H234z"/>
		<path class="st8" d="M248.5,117.2l-0.1-1.3h-0.1c-0.6,0.8-1.7,1.5-3.1,1.5c-2.1,0-3.1-1.4-3.1-2.9c0-2.5,2.2-3.8,6.1-3.8v-0.2
			c0-0.8-0.2-2.4-2.3-2.4c-0.9,0-1.9,0.3-2.6,0.8l-0.4-1.2c0.8-0.5,2.1-0.9,3.3-0.9c3.1,0,3.9,2.1,3.9,4.2v3.8c0,0.9,0,1.7,0.2,2.4
			H248.5z M248.2,112c-2,0-4.3,0.3-4.3,2.3c0,1.2,0.8,1.8,1.7,1.8c1.3,0,2.2-0.8,2.5-1.7c0.1-0.2,0.1-0.4,0.1-0.6V112z"/>
		<path class="st8" d="M253,109.7c0-1,0-1.9-0.1-2.8h1.6l0.1,1.6h0.1c0.6-1,1.5-1.9,3.2-1.9c1.4,0,2.4,0.8,2.9,2h0
			c0.3-0.6,0.7-1,1.1-1.3c0.6-0.5,1.3-0.7,2.2-0.7c1.3,0,3.3,0.9,3.3,4.4v6h-1.8v-5.8c0-2-0.7-3.1-2.2-3.1c-1,0-1.9,0.8-2.2,1.7
			c-0.1,0.3-0.1,0.6-0.1,0.9v6.3h-1.8v-6.1c0-1.6-0.7-2.8-2.1-2.8c-1.2,0-2,0.9-2.3,1.8c-0.1,0.3-0.1,0.6-0.1,0.9v6.1H253V109.7z"/>
		<path class="st8" d="M270.2,115.3c0.5,0.4,1.5,0.7,2.4,0.7c1.3,0,2-0.7,2-1.5c0-0.9-0.5-1.4-1.9-1.9c-1.8-0.7-2.7-1.7-2.7-2.9
			c0-1.6,1.3-3,3.5-3c1,0,1.9,0.3,2.5,0.6l-0.5,1.3c-0.4-0.3-1.1-0.6-2.1-0.6c-1.1,0-1.7,0.6-1.7,1.4c0,0.8,0.6,1.2,1.9,1.7
			c1.8,0.7,2.7,1.6,2.7,3.1c0,1.8-1.4,3-3.8,3c-1.1,0-2.1-0.3-2.9-0.7L270.2,115.3z"/>
	</g>
	</a>
</g>
<g>
</g>
<g>
</g>
<g>
</g>
<g>
</g>
<g>
</g>
</svg>
