
<svg version="1.1" id="Layer_1" xmlns="http://www.w3.org/2000/svg" xmlns:xlink="http://www.w3.org/1999/xlink" x="0px" y="0px"
	 viewBox="0 0 31 27.1" style="enable-background:new 0 0 31 27.1;" xml:space="preserve">
<style type="text/css">
	.st0{fill:#6C68DB;}
</style>
<path class="st0" d="M0,23.2c5.1-3.3,7.7-6.9,7.7-12.7L6.5,3.8L10.7,9c-1.2,1.2-2.3,1.7-3.9,1.7c-2.8,0-5.4-1.8-5.4-5.1
	C1.4,2.2,3.6,0,6.8,0c4,0,6.4,3.3,6.4,9.1c0,8.1-3.8,13.9-10.8,17.9L0,23.2z M17.8,23.2c5.1-3.3,7.7-6.9,7.7-12.7l-1.2-6.7L28.5,9
	c-1.2,1.2-2.3,1.7-3.9,1.7c-2.8,0-5.4-1.8-5.4-5.1c0-3.5,2.2-5.6,5.4-5.6c4,0,6.4,3.3,6.4,9.1c0,8.1-3.8,13.9-10.8,17.9L17.8,23.2z"
	/>
</svg>
