<?xml version="1.0" encoding="utf-8"?>
<!-- Generator: Adobe Illustrator 22.1.0, SVG Export Plug-In . SVG Version: 6.00 Build 0)  -->
<svg version="1.1" id="Layer_1" xmlns="http://www.w3.org/2000/svg" xmlns:xlink="http://www.w3.org/1999/xlink" x="0px" y="0px"
	 viewBox="0 0 31 27.3" style="enable-background:new 0 0 31 27.3;" xml:space="preserve">

<path class="st1" d="M0,17.9C0,9.9,3.8,4,10.8,0l2.4,3.9c-5.1,3.3-7.7,6.9-7.7,12.7l1.2,6.7l-4.2-5.1c1.2-1.2,2.3-1.7,3.9-1.7
	c2.8,0,5.4,1.8,5.4,5.1c0,3.5-2.2,5.6-5.4,5.6C2.4,27.1,0,23.8,0,17.9z M17.8,17.9C17.8,9.9,21.6,4,28.6,0L31,3.9
	c-5.1,3.3-7.7,6.9-7.7,12.7l1.2,6.7l-4.2-5.1c1.2-1.2,2.3-1.7,3.9-1.7c2.8,0,5.4,1.8,5.4,5.1c0,3.5-2.2,5.6-5.4,5.6
	C20.2,27.1,17.8,23.8,17.8,17.9z"/>
</svg>
